<svg width="9" height="19" viewBox="0 0 9 19" fill="none" xmlns="http://www.w3.org/2000/svg">
<path d="M2.60575 19C2.39808 19 2.21475 18.9423 2.05575 18.827C1.89675 18.7115 1.78717 18.5551 1.727 18.3577L0.829 15.3422C0.5725 15.1333 0.37025 14.8746 0.22225 14.5663C0.0740837 14.2579 0 13.9249 0 13.5673V5.43275C0 5.06475 0.0756663 4.72658 0.227 4.41825C0.378333 4.10992 0.582167 3.85125 0.8385 3.64225L1.727 0.64225C1.78717 0.444917 1.89675 0.2885 2.05575 0.173C2.21475 0.0576662 2.39808 0 2.60575 0H6.39425C6.60192 0 6.78267 0.0602495 6.9365 0.18075C7.09033 0.30125 7.19742 0.46025 7.25775 0.65775L8.121 3.61725C8.39417 3.83658 8.60892 4.10042 8.76525 4.40875C8.92175 4.71708 9 5.05842 9 5.43275V13.5673C9 13.9416 8.92433 14.2829 8.773 14.5913C8.62167 14.8996 8.4095 15.1634 8.1365 15.3828L7.273 18.3423C7.21283 18.5398 7.10325 18.6987 6.94425 18.8193C6.78525 18.9398 6.60192 19 6.39425 19H2.60575ZM3.023 17.5H5.952L6.377 15.9902H2.5885L3.023 17.5ZM2.598 3.00975H6.36725L5.952 1.5H3.023L2.598 3.00975Z" fill="#15A06B"/>
</svg>
