<svg width="25" height="26" viewBox="0 0 25 26" fill="none" xmlns="http://www.w3.org/2000/svg">
<g filter="url(#filter0_d_1_1030)">
<path d="M12.3776 17.2447C12.1614 17.2447 11.9803 17.1716 11.8344 17.0253C11.6883 16.8793 11.6153 16.6982 11.6153 16.4822V9.17569C10.5961 9.17569 9.61911 8.98277 8.68443 8.59693C7.74992 8.21109 6.92419 7.65971 6.20725 6.94277C5.49048 6.22583 4.94341 5.4001 4.56605 4.46558C4.18868 3.53107 4 2.55411 4 1.5347V0.909181C4 0.651618 4.0871 0.435655 4.26129 0.261292C4.43548 0.0870977 4.65145 0 4.90918 0H5.5347C6.53191 0 7.49744 0.194528 8.43127 0.583584C9.36528 0.97264 10.1907 1.52564 10.9074 2.24258C11.4393 2.77448 11.8757 3.36857 12.2164 4.02485C12.5574 4.68113 12.8015 5.37815 12.9487 6.11594C13.066 5.9126 13.1966 5.71993 13.3406 5.53795C13.4847 5.35613 13.6454 5.17659 13.8228 4.99935C14.5375 4.2836 15.3634 3.73094 16.3005 3.34137C17.2376 2.95164 18.2143 2.75677 19.2306 2.75677H19.8564C20.114 2.75677 20.3298 2.84395 20.504 3.01832C20.6784 3.19251 20.7656 3.40839 20.7656 3.66595V4.29148C20.7656 5.308 20.5707 6.28479 20.181 7.22185C19.7914 8.1589 19.2388 8.9848 18.523 9.69954C17.8061 10.4165 16.9846 10.9636 16.0585 11.341C15.1323 11.7184 14.1596 11.907 13.1404 11.907V16.4822C13.1404 16.6982 13.0672 16.8793 12.921 17.0253C12.7748 17.1716 12.5936 17.2447 12.3776 17.2447Z" fill="#15A06B"/>
</g>
<defs>
<filter id="filter0_d_1_1030" x="0" y="0" width="24.7656" height="25.2448" filterUnits="userSpaceOnUse" color-interpolation-filters="sRGB">
<feFlood flood-opacity="0" result="BackgroundImageFix"/>
<feColorMatrix in="SourceAlpha" type="matrix" values="0 0 0 0 0 0 0 0 0 0 0 0 0 0 0 0 0 0 127 0" result="hardAlpha"/>
<feOffset dy="4"/>
<feGaussianBlur stdDeviation="2"/>
<feComposite in2="hardAlpha" operator="out"/>
<feColorMatrix type="matrix" values="0 0 0 0 0 0 0 0 0 0 0 0 0 0 0 0 0 0 0.25 0"/>
<feBlend mode="normal" in2="BackgroundImageFix" result="effect1_dropShadow_1_1030"/>
<feBlend mode="normal" in="SourceGraphic" in2="effect1_dropShadow_1_1030" result="shape"/>
</filter>
</defs>
</svg>
