<svg width="16" height="16" viewBox="0 0 16 16" fill="none" xmlns="http://www.w3.org/2000/svg">
    <path d="M14 4.01398C14.002 3.91665 13.9954 3.03731 13.1334 2.19065C12.2847 1.35731 11.4287 1.33331 11.3334 1.33331H4.66404C4.50471 1.33331 3.66871 1.37531 2.85871 2.20131C2.02404 3.05198 2.00004 3.90598 2.00004 3.99998V5.99998H1.33337V7.99998H2.00004V12C2.00004 12.4893 2.27071 12.9153 2.66671 13.1473V14C2.66671 14.1768 2.73695 14.3464 2.86197 14.4714C2.98699 14.5964 3.15656 14.6666 3.33337 14.6666H4.00004C4.17685 14.6666 4.34642 14.5964 4.47145 14.4714C4.59647 14.3464 4.66671 14.1768 4.66671 14V13.3333H11.3334V14C11.3334 14.1768 11.4036 14.3464 11.5286 14.4714C11.6537 14.5964 11.8232 14.6666 12 14.6666H12.6667C12.8435 14.6666 13.0131 14.5964 13.1381 14.4714C13.2631 14.3464 13.3334 14.1768 13.3334 14V13.1486C13.5356 13.0327 13.7038 12.8654 13.8208 12.6637C13.9378 12.4621 13.9997 12.2331 14 12V7.99998H14.6667V5.99998H14V4.01398ZM4.33337 12C4.06807 11.9999 3.81367 11.8944 3.62613 11.7068C3.43859 11.5191 3.33329 11.2646 3.33337 10.9993C3.33346 10.734 3.43894 10.4796 3.6266 10.2921C3.81426 10.1045 4.06874 9.99922 4.33404 9.99931C4.59935 9.9994 4.85375 10.1049 5.04129 10.2925C5.22882 10.4802 5.33413 10.7347 5.33404 11C5.33395 11.2653 5.22848 11.5197 5.04081 11.7072C4.85315 11.8948 4.59868 12.0001 4.33337 12ZM11.6667 12C11.4014 11.9999 11.147 11.8944 10.9595 11.7068C10.7719 11.5191 10.6666 11.2646 10.6667 10.9993C10.6668 10.734 10.7723 10.4796 10.9599 10.2921C11.1476 10.1045 11.4021 9.99922 11.6674 9.99931C11.9327 9.9994 12.1871 10.1049 12.3746 10.2925C12.5622 10.4802 12.6675 10.7347 12.6674 11C12.6673 11.2653 12.5618 11.5197 12.3741 11.7072C12.1865 11.8948 11.932 12.0001 11.6667 12ZM12.6667 8.66665H3.32778V4.2005C3.32778 3.64822 3.7755 3.2005 4.32778 3.2005H11.6667C12.219 3.2005 12.6667 3.64822 12.6667 4.2005V8.66665Z" fill="white"/>
</svg>
